# xmcd
#
# Track frame offsets:
# 150
# 21287
# 41988
# 56653
# 75144
# 92532
# 112619
# 128144
# 140098
# 157775
# 174442
# 189743
# 208038
# 222142
# 238582
#
# Disc length: 3381 seconds
#
#
# Revision: 1
# Processed by: cddbd v1.5.2PL0 Copyright (c) Steve Scherf et al.
# Submitted via: FreeRIP 2.951 
#
DISCID=c10d330f
DTITLE=Milionário and José Rico - Ao vivo
DYEAR=1999
DGENRE=Sertanejo
TTITLE0=Levando a Vida
TTITLE1=Sonhei com Você
TTITLE2=Denguinho
TTITLE3=Pão de Mel
TTITLE4=Tribunal do Amor
TTITLE5=Tempestade de Paixão
TTITLE6=Corpo e Alma
TTITLE7=Inversão de Valores
TTITLE8=Eu Menti
TTITLE9=Viva a Vida
TTITLE10=Jogo do Amor
TTITLE11=Vermelho Leite
TTITLE12=Vá pro inferno com seu amor
TTITLE13=Herói da velocidade
TTITLE14=Estrada da vida
EXTD=
EXTT0=
EXTT1=
EXTT2=
EXTT3=
EXTT4=
EXTT5=
EXTT6=
EXTT7=
EXTT8=
EXTT9=
EXTT10=
EXTT11=
EXTT12=
EXTT13=
EXTT14=
PLAYORDER=
